<mxfile host="app.diagrams.net" modified="2024-02-22T14:49:37.179Z" agent="Mozilla/5.0 (Windows NT 10.0; Win64; x64) AppleWebKit/537.36 (KHTML, like Gecko) Chrome/121.0.0.0 Safari/537.36 Edg/121.0.0.0" etag="L9oUQbHRuGOy-MRgnj-f" version="23.1.5" type="github">
  <diagram name="Page-1" id="74e2e168-ea6b-b213-b513-2b3c1d86103e">
    <mxGraphModel dx="2346" dy="687" grid="1" gridSize="10" guides="1" tooltips="1" connect="1" arrows="1" fold="1" page="1" pageScale="1" pageWidth="1100" pageHeight="850" background="none" math="0" shadow="0">
      <root>
        <mxCell id="0" />
        <mxCell id="1" parent="0" />
        <mxCell id="77e6c97f196da883-2" value="&lt;font style=&quot;font-size: 11px;&quot;&gt;User&lt;/font&gt;" style="swimlane;html=1;startSize=20;align=center;fontSize=11;" parent="1" vertex="1">
          <mxGeometry x="-140" y="90" width="170" height="1360" as="geometry">
            <mxRectangle y="20" width="40" height="730" as="alternateBounds" />
          </mxGeometry>
        </mxCell>
        <mxCell id="2dYA4mqOsPHXv_Ml5pBK-2" value="" style="ellipse;whiteSpace=wrap;html=1;aspect=fixed;fillColor=#000000;strokeColor=#000000;strokeWidth=2;fontSize=11;labelBorderColor=none;" parent="77e6c97f196da883-2" vertex="1">
          <mxGeometry x="60" y="45" width="50" height="50" as="geometry" />
        </mxCell>
        <mxCell id="77e6c97f196da883-4" value="&lt;font style=&quot;font-size: 11px;&quot;&gt;Smart Medicine Box&lt;/font&gt;" style="swimlane;html=1;startSize=20;fontSize=11;" parent="77e6c97f196da883-2" vertex="1">
          <mxGeometry x="350" width="230" height="1360" as="geometry" />
        </mxCell>
        <mxCell id="Wwi6VHeRHih2IKkh5c98-81" style="edgeStyle=orthogonalEdgeStyle;rounded=0;orthogonalLoop=1;jettySize=auto;html=1;exitX=0.5;exitY=1;exitDx=0;exitDy=0;exitPerimeter=0;fontSize=11;" edge="1" parent="77e6c97f196da883-4" source="2dYA4mqOsPHXv_Ml5pBK-34">
          <mxGeometry relative="1" as="geometry">
            <mxPoint x="112.5434782608695" y="695" as="targetPoint" />
          </mxGeometry>
        </mxCell>
        <mxCell id="Wwi6VHeRHih2IKkh5c98-83" value="Yes" style="edgeLabel;html=1;align=center;verticalAlign=middle;resizable=0;points=[];fontSize=11;" vertex="1" connectable="0" parent="Wwi6VHeRHih2IKkh5c98-81">
          <mxGeometry x="-0.116" y="2" relative="1" as="geometry">
            <mxPoint x="-2" as="offset" />
          </mxGeometry>
        </mxCell>
        <mxCell id="2dYA4mqOsPHXv_Ml5pBK-34" value="Drug Exit Schedule = RTC ?" style="strokeWidth=2;html=1;shape=mxgraph.flowchart.decision;whiteSpace=wrap;fontSize=10;" parent="77e6c97f196da883-4" vertex="1">
          <mxGeometry x="56.25" y="560" width="112.5" height="110" as="geometry" />
        </mxCell>
        <mxCell id="Wwi6VHeRHih2IKkh5c98-34" value="&lt;font style=&quot;font-size: 11px;&quot;&gt;Send sensor values to database&lt;/font&gt;" style="strokeWidth=2;html=1;shape=mxgraph.flowchart.terminator;whiteSpace=wrap;fontSize=11;" vertex="1" parent="77e6c97f196da883-4">
          <mxGeometry x="55" y="305" width="120" height="50" as="geometry" />
        </mxCell>
        <mxCell id="2dYA4mqOsPHXv_Ml5pBK-25" value="&lt;font style=&quot;font-size: 11px;&quot;&gt;Reads sensor values (DHT 11, MC 38, Buzzer)&lt;/font&gt;" style="strokeWidth=2;html=1;shape=mxgraph.flowchart.terminator;whiteSpace=wrap;fontSize=11;" parent="77e6c97f196da883-4" vertex="1">
          <mxGeometry x="35" y="210" width="160" height="60" as="geometry" />
        </mxCell>
        <mxCell id="Wwi6VHeRHih2IKkh5c98-37" value="&lt;font style=&quot;font-size: 11px;&quot;&gt;ESP 32 Connected to the internet&lt;/font&gt;" style="strokeWidth=2;html=1;shape=mxgraph.flowchart.terminator;whiteSpace=wrap;fontSize=11;" vertex="1" parent="77e6c97f196da883-4">
          <mxGeometry x="45" y="120" width="140" height="60" as="geometry" />
        </mxCell>
        <mxCell id="Wwi6VHeRHih2IKkh5c98-64" style="edgeStyle=orthogonalEdgeStyle;rounded=0;orthogonalLoop=1;jettySize=auto;html=1;exitX=1;exitY=0.5;exitDx=0;exitDy=0;exitPerimeter=0;fontSize=11;" edge="1" parent="77e6c97f196da883-4" source="2dYA4mqOsPHXv_Ml5pBK-22">
          <mxGeometry relative="1" as="geometry">
            <mxPoint x="45" y="149.85" as="targetPoint" />
            <mxPoint x="-215" y="149.85307692307688" as="sourcePoint" />
            <Array as="points">
              <mxPoint x="25" y="150" />
            </Array>
          </mxGeometry>
        </mxCell>
        <mxCell id="Wwi6VHeRHih2IKkh5c98-72" style="edgeStyle=orthogonalEdgeStyle;rounded=0;orthogonalLoop=1;jettySize=auto;html=1;exitX=0.5;exitY=1;exitDx=0;exitDy=0;exitPerimeter=0;entryX=0.5;entryY=0;entryDx=0;entryDy=0;entryPerimeter=0;fontSize=11;" edge="1" parent="77e6c97f196da883-4" source="Wwi6VHeRHih2IKkh5c98-37" target="2dYA4mqOsPHXv_Ml5pBK-25">
          <mxGeometry relative="1" as="geometry" />
        </mxCell>
        <mxCell id="Wwi6VHeRHih2IKkh5c98-73" style="edgeStyle=orthogonalEdgeStyle;rounded=0;orthogonalLoop=1;jettySize=auto;html=1;exitX=0.5;exitY=1;exitDx=0;exitDy=0;exitPerimeter=0;entryX=0.5;entryY=0;entryDx=0;entryDy=0;entryPerimeter=0;fontSize=11;" edge="1" parent="77e6c97f196da883-4" source="2dYA4mqOsPHXv_Ml5pBK-25" target="Wwi6VHeRHih2IKkh5c98-34">
          <mxGeometry relative="1" as="geometry" />
        </mxCell>
        <mxCell id="Wwi6VHeRHih2IKkh5c98-76" style="edgeStyle=orthogonalEdgeStyle;rounded=0;orthogonalLoop=1;jettySize=auto;html=1;exitX=1;exitY=0.5;exitDx=0;exitDy=0;exitPerimeter=0;entryX=1;entryY=0.5;entryDx=0;entryDy=0;entryPerimeter=0;fontSize=11;" edge="1" parent="77e6c97f196da883-4" source="2dYA4mqOsPHXv_Ml5pBK-34" target="2dYA4mqOsPHXv_Ml5pBK-25">
          <mxGeometry relative="1" as="geometry" />
        </mxCell>
        <mxCell id="Wwi6VHeRHih2IKkh5c98-79" value="No" style="edgeLabel;html=1;align=center;verticalAlign=middle;resizable=0;points=[];fontSize=11;" vertex="1" connectable="0" parent="Wwi6VHeRHih2IKkh5c98-76">
          <mxGeometry x="-0.8813" y="-1" relative="1" as="geometry">
            <mxPoint as="offset" />
          </mxGeometry>
        </mxCell>
        <mxCell id="Wwi6VHeRHih2IKkh5c98-82" value="PWM for Servo" style="strokeWidth=2;html=1;shape=mxgraph.flowchart.terminator;whiteSpace=wrap;fontSize=11;" vertex="1" parent="77e6c97f196da883-4">
          <mxGeometry x="67.5" y="695" width="95" height="50" as="geometry" />
        </mxCell>
        <mxCell id="Wwi6VHeRHih2IKkh5c98-84" style="edgeStyle=orthogonalEdgeStyle;rounded=0;orthogonalLoop=1;jettySize=auto;html=1;exitX=0.5;exitY=1;exitDx=0;exitDy=0;exitPerimeter=0;fontSize=11;" edge="1" parent="77e6c97f196da883-4" source="Wwi6VHeRHih2IKkh5c98-82">
          <mxGeometry relative="1" as="geometry">
            <mxPoint x="114.97826086956547" y="775" as="targetPoint" />
          </mxGeometry>
        </mxCell>
        <mxCell id="Wwi6VHeRHih2IKkh5c98-89" style="edgeStyle=orthogonalEdgeStyle;rounded=0;orthogonalLoop=1;jettySize=auto;html=1;exitX=1;exitY=0.5;exitDx=0;exitDy=0;exitPerimeter=0;entryX=1;entryY=0.5;entryDx=0;entryDy=0;entryPerimeter=0;fontSize=11;" edge="1" parent="77e6c97f196da883-4" source="Wwi6VHeRHih2IKkh5c98-86" target="Wwi6VHeRHih2IKkh5c98-82">
          <mxGeometry relative="1" as="geometry">
            <mxPoint x="168.45238095238074" y="715" as="targetPoint" />
          </mxGeometry>
        </mxCell>
        <mxCell id="Wwi6VHeRHih2IKkh5c98-90" value="No" style="edgeLabel;html=1;align=center;verticalAlign=middle;resizable=0;points=[];fontSize=11;" vertex="1" connectable="0" parent="Wwi6VHeRHih2IKkh5c98-89">
          <mxGeometry x="-0.8143" relative="1" as="geometry">
            <mxPoint as="offset" />
          </mxGeometry>
        </mxCell>
        <mxCell id="Wwi6VHeRHih2IKkh5c98-86" value="Sum == Doses&amp;nbsp; ?" style="strokeWidth=2;html=1;shape=mxgraph.flowchart.decision;whiteSpace=wrap;fontSize=11;" vertex="1" parent="77e6c97f196da883-4">
          <mxGeometry x="61.25" y="775" width="107.5" height="110" as="geometry" />
        </mxCell>
        <mxCell id="Wwi6VHeRHih2IKkh5c98-92" value="Activate the buzzer, send data the buzzer turns on, and the notification is scheduled to take medicine" style="strokeWidth=2;html=1;shape=mxgraph.flowchart.terminator;whiteSpace=wrap;fontSize=11;" vertex="1" parent="77e6c97f196da883-4">
          <mxGeometry x="10" y="915" width="210" height="80" as="geometry" />
        </mxCell>
        <mxCell id="Wwi6VHeRHih2IKkh5c98-91" style="edgeStyle=orthogonalEdgeStyle;rounded=0;orthogonalLoop=1;jettySize=auto;html=1;exitX=0.5;exitY=1;exitDx=0;exitDy=0;exitPerimeter=0;fontSize=11;" edge="1" parent="77e6c97f196da883-4" source="Wwi6VHeRHih2IKkh5c98-86" target="Wwi6VHeRHih2IKkh5c98-92">
          <mxGeometry relative="1" as="geometry">
            <mxPoint x="115.16666666666652" y="905" as="targetPoint" />
          </mxGeometry>
        </mxCell>
        <mxCell id="Wwi6VHeRHih2IKkh5c98-93" value="Yes" style="edgeLabel;html=1;align=center;verticalAlign=middle;resizable=0;points=[];fontSize=11;" vertex="1" connectable="0" parent="Wwi6VHeRHih2IKkh5c98-91">
          <mxGeometry x="-0.68" y="1" relative="1" as="geometry">
            <mxPoint as="offset" />
          </mxGeometry>
        </mxCell>
        <mxCell id="Wwi6VHeRHih2IKkh5c98-121" value="&lt;div style=&quot;font-size: 11px;&quot;&gt;&lt;span style=&quot;background-color: initial; font-size: 11px;&quot;&gt;The device dispenses the drug according to the dose into the drawer&lt;/span&gt;&lt;/div&gt;" style="strokeWidth=2;html=1;shape=mxgraph.flowchart.terminator;whiteSpace=wrap;align=center;fontSize=11;" vertex="1" parent="77e6c97f196da883-4">
          <mxGeometry x="38.120000000000005" y="1050" width="153.75" height="80" as="geometry" />
        </mxCell>
        <mxCell id="Wwi6VHeRHih2IKkh5c98-120" style="edgeStyle=orthogonalEdgeStyle;rounded=0;orthogonalLoop=1;jettySize=auto;html=1;exitX=0.5;exitY=1;exitDx=0;exitDy=0;exitPerimeter=0;fontSize=11;" edge="1" parent="77e6c97f196da883-4" source="Wwi6VHeRHih2IKkh5c98-92" target="Wwi6VHeRHih2IKkh5c98-121">
          <mxGeometry relative="1" as="geometry">
            <mxPoint x="114.60869565217399" y="1045" as="targetPoint" />
          </mxGeometry>
        </mxCell>
        <mxCell id="2dYA4mqOsPHXv_Ml5pBK-11" value="&lt;font style=&quot;font-size: 11px;&quot;&gt;Go to screen settings&lt;/font&gt;" style="strokeWidth=2;html=1;shape=mxgraph.flowchart.terminator;whiteSpace=wrap;fontSize=11;" parent="77e6c97f196da883-2" vertex="1">
          <mxGeometry x="25" y="275" width="120" height="60" as="geometry" />
        </mxCell>
        <mxCell id="2dYA4mqOsPHXv_Ml5pBK-13" value="&lt;font style=&quot;font-size: 11px;&quot;&gt;Input drug exit schedule, number of doses, amount of drug&lt;/font&gt;" style="strokeWidth=2;html=1;shape=mxgraph.flowchart.terminator;whiteSpace=wrap;fontSize=11;" parent="77e6c97f196da883-2" vertex="1">
          <mxGeometry x="5" y="370" width="160" height="60" as="geometry" />
        </mxCell>
        <mxCell id="2dYA4mqOsPHXv_Ml5pBK-12" style="edgeStyle=orthogonalEdgeStyle;rounded=0;orthogonalLoop=1;jettySize=auto;html=1;exitX=0.5;exitY=1;exitDx=0;exitDy=0;exitPerimeter=0;fontSize=11;" parent="77e6c97f196da883-2" source="2dYA4mqOsPHXv_Ml5pBK-11" target="2dYA4mqOsPHXv_Ml5pBK-13" edge="1">
          <mxGeometry relative="1" as="geometry">
            <mxPoint x="85" y="357" as="targetPoint" />
          </mxGeometry>
        </mxCell>
        <mxCell id="2dYA4mqOsPHXv_Ml5pBK-9" value="&lt;font style=&quot;font-size: 11px;&quot;&gt;Open an App&lt;/font&gt;" style="strokeWidth=2;html=1;shape=mxgraph.flowchart.terminator;whiteSpace=wrap;fontSize=11;" parent="77e6c97f196da883-2" vertex="1">
          <mxGeometry x="35" y="200" width="100" height="50" as="geometry" />
        </mxCell>
        <mxCell id="2dYA4mqOsPHXv_Ml5pBK-10" style="edgeStyle=orthogonalEdgeStyle;rounded=0;orthogonalLoop=1;jettySize=auto;html=1;exitX=0.5;exitY=1;exitDx=0;exitDy=0;exitPerimeter=0;fontSize=11;" parent="77e6c97f196da883-2" source="2dYA4mqOsPHXv_Ml5pBK-9" target="2dYA4mqOsPHXv_Ml5pBK-11" edge="1">
          <mxGeometry relative="1" as="geometry">
            <mxPoint x="525.2608695652175" y="287" as="targetPoint" />
          </mxGeometry>
        </mxCell>
        <mxCell id="2dYA4mqOsPHXv_Ml5pBK-22" value="&lt;font style=&quot;font-size: 11px;&quot;&gt;Turn on Smart medicine box&lt;/font&gt;" style="strokeWidth=2;html=1;shape=mxgraph.flowchart.terminator;whiteSpace=wrap;fontSize=11;" parent="77e6c97f196da883-2" vertex="1">
          <mxGeometry x="35" y="120.00307692307692" width="100" height="60" as="geometry" />
        </mxCell>
        <mxCell id="Wwi6VHeRHih2IKkh5c98-52" style="edgeStyle=orthogonalEdgeStyle;rounded=0;orthogonalLoop=1;jettySize=auto;html=1;exitX=0.5;exitY=1;exitDx=0;exitDy=0;entryX=0.5;entryY=0;entryDx=0;entryDy=0;entryPerimeter=0;fontSize=11;" edge="1" parent="77e6c97f196da883-2" source="2dYA4mqOsPHXv_Ml5pBK-2" target="2dYA4mqOsPHXv_Ml5pBK-22">
          <mxGeometry relative="1" as="geometry" />
        </mxCell>
        <mxCell id="Wwi6VHeRHih2IKkh5c98-54" style="edgeStyle=orthogonalEdgeStyle;rounded=0;orthogonalLoop=1;jettySize=auto;html=1;exitX=0.5;exitY=1;exitDx=0;exitDy=0;exitPerimeter=0;entryX=0.5;entryY=0;entryDx=0;entryDy=0;entryPerimeter=0;fontSize=11;" edge="1" parent="77e6c97f196da883-2" source="2dYA4mqOsPHXv_Ml5pBK-22" target="2dYA4mqOsPHXv_Ml5pBK-9">
          <mxGeometry relative="1" as="geometry" />
        </mxCell>
        <mxCell id="Wwi6VHeRHih2IKkh5c98-124" value="&lt;font style=&quot;font-size: 11px;&quot;&gt;The user takes the medicine from the drawer&lt;/font&gt;" style="strokeWidth=2;html=1;shape=mxgraph.flowchart.terminator;whiteSpace=wrap;" vertex="1" parent="77e6c97f196da883-2">
          <mxGeometry x="28.75" y="1050" width="115" height="80" as="geometry" />
        </mxCell>
        <mxCell id="Wwi6VHeRHih2IKkh5c98-125" style="edgeStyle=orthogonalEdgeStyle;rounded=0;orthogonalLoop=1;jettySize=auto;html=1;exitX=0;exitY=0.5;exitDx=0;exitDy=0;exitPerimeter=0;entryX=1;entryY=0.5;entryDx=0;entryDy=0;entryPerimeter=0;" edge="1" parent="77e6c97f196da883-2" source="Wwi6VHeRHih2IKkh5c98-121" target="Wwi6VHeRHih2IKkh5c98-124">
          <mxGeometry relative="1" as="geometry">
            <mxPoint x="150" y="1040" as="targetPoint" />
          </mxGeometry>
        </mxCell>
        <mxCell id="Wwi6VHeRHih2IKkh5c98-127" value="Send data MC38 sensor reads drawer open and buzzer off" style="strokeWidth=2;html=1;shape=mxgraph.flowchart.terminator;whiteSpace=wrap;fontSize=11;" vertex="1" parent="77e6c97f196da883-2">
          <mxGeometry x="27.5" y="1165" width="117.5" height="70" as="geometry" />
        </mxCell>
        <mxCell id="Wwi6VHeRHih2IKkh5c98-126" style="edgeStyle=orthogonalEdgeStyle;rounded=0;orthogonalLoop=1;jettySize=auto;html=1;exitX=0.5;exitY=1;exitDx=0;exitDy=0;exitPerimeter=0;" edge="1" parent="77e6c97f196da883-2" source="Wwi6VHeRHih2IKkh5c98-124" target="Wwi6VHeRHih2IKkh5c98-127">
          <mxGeometry relative="1" as="geometry">
            <mxPoint x="86.25" y="1159.9999999999998" as="targetPoint" />
          </mxGeometry>
        </mxCell>
        <mxCell id="77e6c97f196da883-3" value="&lt;font style=&quot;font-size: 11px;&quot;&gt;Application System&lt;/font&gt;" style="swimlane;html=1;startSize=20;fontSize=11;" parent="1" vertex="1">
          <mxGeometry x="30" y="90" width="180" height="1360" as="geometry" />
        </mxCell>
        <mxCell id="Wwi6VHeRHih2IKkh5c98-70" style="edgeStyle=orthogonalEdgeStyle;rounded=0;orthogonalLoop=1;jettySize=auto;html=1;exitX=0.5;exitY=0;exitDx=0;exitDy=0;exitPerimeter=0;fontSize=11;" edge="1" parent="77e6c97f196da883-3" source="2dYA4mqOsPHXv_Ml5pBK-15">
          <mxGeometry relative="1" as="geometry">
            <mxPoint x="-80" y="350" as="targetPoint" />
            <Array as="points">
              <mxPoint x="90" y="320" />
              <mxPoint x="-19" y="320" />
              <mxPoint x="-19" y="350" />
            </Array>
          </mxGeometry>
        </mxCell>
        <mxCell id="Wwi6VHeRHih2IKkh5c98-78" value="No" style="edgeLabel;html=1;align=center;verticalAlign=middle;resizable=0;points=[];fontSize=11;" vertex="1" connectable="0" parent="Wwi6VHeRHih2IKkh5c98-70">
          <mxGeometry x="-0.9259" y="-1" relative="1" as="geometry">
            <mxPoint as="offset" />
          </mxGeometry>
        </mxCell>
        <mxCell id="2dYA4mqOsPHXv_Ml5pBK-15" value="&lt;font style=&quot;font-size: 11px;&quot;&gt;Data can be stored ?&lt;/font&gt;" style="strokeWidth=2;html=1;shape=mxgraph.flowchart.decision;whiteSpace=wrap;fontSize=11;" parent="77e6c97f196da883-3" vertex="1">
          <mxGeometry x="30" y="340" width="120" height="120" as="geometry" />
        </mxCell>
        <mxCell id="Wwi6VHeRHih2IKkh5c98-122" value="" style="edgeStyle=orthogonalEdgeStyle;rounded=0;orthogonalLoop=1;jettySize=auto;html=1;fontSize=11;" edge="1" parent="77e6c97f196da883-3" source="2dYA4mqOsPHXv_Ml5pBK-19" target="2dYA4mqOsPHXv_Ml5pBK-31">
          <mxGeometry relative="1" as="geometry" />
        </mxCell>
        <mxCell id="2dYA4mqOsPHXv_Ml5pBK-19" value="&lt;font style=&quot;font-size: 11px;&quot;&gt;Data stored on a database&lt;/font&gt;" style="strokeWidth=2;html=1;shape=mxgraph.flowchart.terminator;whiteSpace=wrap;fontSize=11;" parent="77e6c97f196da883-3" vertex="1">
          <mxGeometry x="40.00105263157894" y="490" width="100" height="60" as="geometry" />
        </mxCell>
        <mxCell id="2dYA4mqOsPHXv_Ml5pBK-31" value="&lt;font style=&quot;font-size: 11px;&quot;&gt;Display the latest data on the monitoring screen&lt;/font&gt;" style="strokeWidth=2;html=1;shape=mxgraph.flowchart.terminator;whiteSpace=wrap;fontSize=11;" parent="77e6c97f196da883-3" vertex="1">
          <mxGeometry x="35" y="580" width="110" height="70" as="geometry" />
        </mxCell>
        <mxCell id="Wwi6VHeRHih2IKkh5c98-66" style="edgeStyle=orthogonalEdgeStyle;rounded=0;orthogonalLoop=1;jettySize=auto;html=1;exitX=0.5;exitY=1;exitDx=0;exitDy=0;exitPerimeter=0;entryX=0.5;entryY=0;entryDx=0;entryDy=0;entryPerimeter=0;fontSize=11;" edge="1" parent="77e6c97f196da883-3" source="2dYA4mqOsPHXv_Ml5pBK-15" target="2dYA4mqOsPHXv_Ml5pBK-19">
          <mxGeometry relative="1" as="geometry" />
        </mxCell>
        <mxCell id="Wwi6VHeRHih2IKkh5c98-77" value="Yes" style="edgeLabel;html=1;align=center;verticalAlign=middle;resizable=0;points=[];fontSize=11;" vertex="1" connectable="0" parent="Wwi6VHeRHih2IKkh5c98-66">
          <mxGeometry x="-0.0667" y="1" relative="1" as="geometry">
            <mxPoint as="offset" />
          </mxGeometry>
        </mxCell>
        <mxCell id="Wwi6VHeRHih2IKkh5c98-71" style="edgeStyle=orthogonalEdgeStyle;rounded=0;orthogonalLoop=1;jettySize=auto;html=1;exitX=0.5;exitY=1;exitDx=0;exitDy=0;exitPerimeter=0;entryX=0.5;entryY=0;entryDx=0;entryDy=0;entryPerimeter=0;fontSize=11;" edge="1" parent="77e6c97f196da883-3" source="2dYA4mqOsPHXv_Ml5pBK-19" target="2dYA4mqOsPHXv_Ml5pBK-31">
          <mxGeometry relative="1" as="geometry" />
        </mxCell>
        <mxCell id="Wwi6VHeRHih2IKkh5c98-167" value="&lt;font style=&quot;font-size: 11px;&quot;&gt;Data stored on a database&lt;/font&gt;" style="strokeWidth=2;html=1;shape=mxgraph.flowchart.terminator;whiteSpace=wrap;fontSize=11;" vertex="1" parent="77e6c97f196da883-3">
          <mxGeometry x="45.00105263157894" y="925" width="100" height="60" as="geometry" />
        </mxCell>
        <mxCell id="Wwi6VHeRHih2IKkh5c98-180" style="edgeStyle=orthogonalEdgeStyle;rounded=0;orthogonalLoop=1;jettySize=auto;html=1;exitX=0.5;exitY=1;exitDx=0;exitDy=0;exitPerimeter=0;" edge="1" parent="77e6c97f196da883-3" source="Wwi6VHeRHih2IKkh5c98-170">
          <mxGeometry relative="1" as="geometry">
            <mxPoint x="95.20689655172418" y="1250.0000000000002" as="targetPoint" />
          </mxGeometry>
        </mxCell>
        <mxCell id="Wwi6VHeRHih2IKkh5c98-170" value="&lt;font style=&quot;font-size: 11px;&quot;&gt;Display the latest data on the monitoring screen&lt;/font&gt;" style="strokeWidth=2;html=1;shape=mxgraph.flowchart.terminator;whiteSpace=wrap;fontSize=11;" vertex="1" parent="77e6c97f196da883-3">
          <mxGeometry x="40" y="1010" width="110" height="70" as="geometry" />
        </mxCell>
        <mxCell id="Wwi6VHeRHih2IKkh5c98-171" style="edgeStyle=orthogonalEdgeStyle;rounded=0;orthogonalLoop=1;jettySize=auto;html=1;exitX=0.5;exitY=1;exitDx=0;exitDy=0;exitPerimeter=0;entryX=0.5;entryY=0;entryDx=0;entryDy=0;entryPerimeter=0;" edge="1" parent="77e6c97f196da883-3" source="Wwi6VHeRHih2IKkh5c98-167" target="Wwi6VHeRHih2IKkh5c98-170">
          <mxGeometry relative="1" as="geometry" />
        </mxCell>
        <mxCell id="Wwi6VHeRHih2IKkh5c98-176" value="" style="verticalLabelPosition=bottom;verticalAlign=top;html=1;shape=ellipse;dx=25;perimeter=ellipsePerimeter;whiteSpace=wrap;aspect=fixed;fillColor=#000000;" vertex="1" parent="77e6c97f196da883-3">
          <mxGeometry x="59.06" y="1253.39" width="71.88" height="68.23" as="geometry" />
        </mxCell>
        <mxCell id="Wwi6VHeRHih2IKkh5c98-179" value="" style="verticalLabelPosition=bottom;verticalAlign=top;html=1;shape=mxgraph.basic.donut;dx=25;" vertex="1" parent="77e6c97f196da883-3">
          <mxGeometry x="58.129999999999995" y="1250" width="74" height="75" as="geometry" />
        </mxCell>
        <mxCell id="Wwi6VHeRHih2IKkh5c98-65" style="edgeStyle=orthogonalEdgeStyle;rounded=0;orthogonalLoop=1;jettySize=auto;html=1;exitX=1;exitY=0.5;exitDx=0;exitDy=0;exitPerimeter=0;entryX=0;entryY=0.5;entryDx=0;entryDy=0;entryPerimeter=0;fontSize=11;" edge="1" parent="1" source="2dYA4mqOsPHXv_Ml5pBK-13" target="2dYA4mqOsPHXv_Ml5pBK-15">
          <mxGeometry relative="1" as="geometry" />
        </mxCell>
        <mxCell id="Wwi6VHeRHih2IKkh5c98-99" style="edgeStyle=orthogonalEdgeStyle;rounded=0;orthogonalLoop=1;jettySize=auto;html=1;exitX=0.5;exitY=1;exitDx=0;exitDy=0;exitPerimeter=0;entryX=1;entryY=0.5;entryDx=0;entryDy=0;entryPerimeter=0;fontSize=11;" edge="1" parent="1" source="Wwi6VHeRHih2IKkh5c98-34" target="2dYA4mqOsPHXv_Ml5pBK-19">
          <mxGeometry relative="1" as="geometry" />
        </mxCell>
        <mxCell id="Wwi6VHeRHih2IKkh5c98-132" style="edgeStyle=orthogonalEdgeStyle;rounded=0;orthogonalLoop=1;jettySize=auto;html=1;exitX=1;exitY=0.5;exitDx=0;exitDy=0;exitPerimeter=0;entryX=0;entryY=0.5;entryDx=0;entryDy=0;entryPerimeter=0;" edge="1" parent="1" source="2dYA4mqOsPHXv_Ml5pBK-31" target="2dYA4mqOsPHXv_Ml5pBK-34">
          <mxGeometry relative="1" as="geometry" />
        </mxCell>
        <mxCell id="Wwi6VHeRHih2IKkh5c98-169" style="edgeStyle=orthogonalEdgeStyle;rounded=0;orthogonalLoop=1;jettySize=auto;html=1;exitX=0;exitY=0.5;exitDx=0;exitDy=0;exitPerimeter=0;entryX=1;entryY=0.5;entryDx=0;entryDy=0;entryPerimeter=0;" edge="1" parent="1" source="Wwi6VHeRHih2IKkh5c98-92" target="Wwi6VHeRHih2IKkh5c98-167">
          <mxGeometry relative="1" as="geometry" />
        </mxCell>
        <mxCell id="Wwi6VHeRHih2IKkh5c98-174" style="edgeStyle=orthogonalEdgeStyle;rounded=0;orthogonalLoop=1;jettySize=auto;html=1;exitX=1.001;exitY=0.538;exitDx=0;exitDy=0;exitPerimeter=0;entryX=0;entryY=0.5;entryDx=0;entryDy=0;entryPerimeter=0;" edge="1" parent="1" source="Wwi6VHeRHih2IKkh5c98-127" target="Wwi6VHeRHih2IKkh5c98-167">
          <mxGeometry relative="1" as="geometry">
            <mxPoint x="59.50000000000023" y="1040" as="targetPoint" />
            <mxPoint x="-6.749999999999773" y="1275" as="sourcePoint" />
            <Array as="points">
              <mxPoint x="40" y="1293" />
              <mxPoint x="40" y="1045" />
            </Array>
          </mxGeometry>
        </mxCell>
      </root>
    </mxGraphModel>
  </diagram>
</mxfile>
